<svg xmlns="http://www.w3.org/2000/svg" xmlns:xlink="http://www.w3.org/1999/xlink" version="1.1" baseProfile="full" width="871" height="538" style="user-select: none; position: absolute; left: 0px; top: 0px;">
<g>
<rect width="871" height="538" x="0" y="0" id="0" style="fill: transparent;">
</rect>
</g>
<g>
<path d="M 299.9123 404.5877 A 5 5 0 0 1 292.8412 411.6588 A 201.75 201.75 0 1 1 578.1588 411.6588 M 578.1588 411.6588 A 5 5 0 1 1 571.0877 404.5877 A 191.75 191.75 0 1 0 299.9123 404.5877 M 299.9123 404.5877 Z" fill="#E6EBF8" fill-opacity="1" stroke="none">
</path>
<path d="M 306.9833 397.5167 L 314.0544 390.4456" fill="none" stroke="#63677A" stroke-width="3" paint-order="fill" stroke-opacity="1" stroke-dasharray="" stroke-linecap="butt" stroke-miterlimit="10">
</path>
<text xml:space="preserve" fill="#464646" fill-opacity="1" stroke="none" dominant-baseline="central" text-anchor="start" x="317.5899442371432" y="386.9100557628568" style="font: 12px &quot;Microsoft YaHei&quot;;">0</text>
<path d="M 306.9833 397.5167 L 311.226 393.274" fill="none" stroke="#63677A" stroke-width="1" paint-order="fill" stroke-opacity="1" stroke-dasharray="" stroke-linecap="butt" stroke-miterlimit="10">
</path>
<path d="M 295.4592 384.8518 L 300.0823 381.0273" fill="none" stroke="#63677A" stroke-width="1" paint-order="fill" stroke-opacity="1" stroke-dasharray="" stroke-linecap="butt" stroke-miterlimit="10">
</path>
<path d="M 285.1781 371.1587 L 290.1406 367.7862" fill="none" stroke="#63677A" stroke-width="1" paint-order="fill" stroke-opacity="1" stroke-dasharray="" stroke-linecap="butt" stroke-miterlimit="10">
</path>
<path d="M 276.2313 356.5587 L 281.4891 353.6682" fill="none" stroke="#63677A" stroke-width="1" paint-order="fill" stroke-opacity="1" stroke-dasharray="" stroke-linecap="butt" stroke-miterlimit="10">
</path>
<path d="M 268.6981 341.1816 L 274.2046 338.7987" fill="none" stroke="#63677A" stroke-width="1" paint-order="fill" stroke-opacity="1" stroke-dasharray="" stroke-linecap="butt" stroke-miterlimit="10">
</path>
<path d="M 262.6455 325.1638 L 268.3518 323.3097" fill="none" stroke="#63677A" stroke-width="1" paint-order="fill" stroke-opacity="1" stroke-dasharray="" stroke-linecap="butt" stroke-miterlimit="10">
</path>
<path d="M 262.6455 325.1638 L 272.156 322.0737" fill="none" stroke="#63677A" stroke-width="3" paint-order="fill" stroke-opacity="1" stroke-dasharray="" stroke-linecap="butt" stroke-miterlimit="10">
</path>
<text xml:space="preserve" fill="#464646" fill-opacity="1" stroke="none" dominant-baseline="central" text-anchor="start" x="276.9113259077832" y="320.52858381202253" style="font: 12px &quot;Microsoft YaHei&quot;;">10</text>
<path d="M 262.6455 325.1638 L 268.3518 323.3097" fill="none" stroke="#63677A" stroke-width="1" paint-order="fill" stroke-opacity="1" stroke-dasharray="" stroke-linecap="butt" stroke-miterlimit="10">
</path>
<path d="M 258.1271 308.6475 L 263.9826 307.3387" fill="none" stroke="#63677A" stroke-width="1" paint-order="fill" stroke-opacity="1" stroke-dasharray="" stroke-linecap="butt" stroke-miterlimit="10">
</path>
<path d="M 255.1832 291.7793 L 261.1358 291.0273" fill="none" stroke="#63677A" stroke-width="1" paint-order="fill" stroke-opacity="1" stroke-dasharray="" stroke-linecap="butt" stroke-miterlimit="10">
</path>
<path d="M 253.8397 274.7089 L 259.8367 274.5204" fill="none" stroke="#63677A" stroke-width="1" paint-order="fill" stroke-opacity="1" stroke-dasharray="" stroke-linecap="butt" stroke-miterlimit="10">
</path>
<path d="M 254.1086 257.5878 L 260.0968 257.9646" fill="none" stroke="#63677A" stroke-width="1" paint-order="fill" stroke-opacity="1" stroke-dasharray="" stroke-linecap="butt" stroke-miterlimit="10">
</path>
<path d="M 255.9876 240.568 L 261.9138 241.5066" fill="none" stroke="#63677A" stroke-width="1" paint-order="fill" stroke-opacity="1" stroke-dasharray="" stroke-linecap="butt" stroke-miterlimit="10">
</path>
<path d="M 255.9876 240.568 L 265.8645 242.1324" fill="none" stroke="#63677A" stroke-width="3" paint-order="fill" stroke-opacity="1" stroke-dasharray="" stroke-linecap="butt" stroke-miterlimit="10">
</path>
<text xml:space="preserve" fill="#464646" fill-opacity="1" stroke="none" dominant-baseline="central" text-anchor="start" x="270.80296920576075" y="242.91455295454162" style="font: 12px &quot;Microsoft YaHei&quot;;">20</text>
<path d="M 255.9876 240.568 L 261.9138 241.5066" fill="none" stroke="#63677A" stroke-width="1" paint-order="fill" stroke-opacity="1" stroke-dasharray="" stroke-linecap="butt" stroke-miterlimit="10">
</path>
<path d="M 259.46 223.8006 L 265.2715 225.2928" fill="none" stroke="#63677A" stroke-width="1" paint-order="fill" stroke-opacity="1" stroke-dasharray="" stroke-linecap="butt" stroke-miterlimit="10">
</path>
<path d="M 264.4949 207.4344 L 270.1402 209.4668" fill="none" stroke="#63677A" stroke-width="1" paint-order="fill" stroke-opacity="1" stroke-dasharray="" stroke-linecap="butt" stroke-miterlimit="10">
</path>
<path d="M 271.0477 191.6146 L 276.4766 194.1693" fill="none" stroke="#63677A" stroke-width="1" paint-order="fill" stroke-opacity="1" stroke-dasharray="" stroke-linecap="butt" stroke-miterlimit="10">
</path>
<path d="M 279.0601 176.4817 L 284.2246 179.536" fill="none" stroke="#63677A" stroke-width="1" paint-order="fill" stroke-opacity="1" stroke-dasharray="" stroke-linecap="butt" stroke-miterlimit="10">
</path>
<path d="M 288.4612 162.17 L 293.3153 165.6967" fill="none" stroke="#63677A" stroke-width="1" paint-order="fill" stroke-opacity="1" stroke-dasharray="" stroke-linecap="butt" stroke-miterlimit="10">
</path>
<path d="M 288.4612 162.17 L 296.5513 168.0479" fill="none" stroke="#63677A" stroke-width="3" paint-order="fill" stroke-opacity="1" stroke-dasharray="" stroke-linecap="butt" stroke-miterlimit="10">
</path>
<text xml:space="preserve" fill="#464646" fill-opacity="1" stroke="none" dominant-baseline="central" text-anchor="start" x="300.5964161879774" y="170.98680918023027" style="font: 12px &quot;Microsoft YaHei&quot;;">30</text>
<path d="M 288.4612 162.17 L 293.3153 165.6967" fill="none" stroke="#63677A" stroke-width="1" paint-order="fill" stroke-opacity="1" stroke-dasharray="" stroke-linecap="butt" stroke-miterlimit="10">
</path>
<path d="M 299.1673 148.8066 L 303.668 152.7744" fill="none" stroke="#63677A" stroke-width="1" paint-order="fill" stroke-opacity="1" stroke-dasharray="" stroke-linecap="butt" stroke-miterlimit="10">
</path>
<path d="M 311.0836 136.51 L 315.1908 140.8838" fill="none" stroke="#63677A" stroke-width="1" paint-order="fill" stroke-opacity="1" stroke-dasharray="" stroke-linecap="butt" stroke-miterlimit="10">
</path>
<path d="M 324.1041 125.3893 L 327.7816 130.1303" fill="none" stroke="#63677A" stroke-width="1" paint-order="fill" stroke-opacity="1" stroke-dasharray="" stroke-linecap="butt" stroke-miterlimit="10">
</path>
<path d="M 338.1135 115.5434 L 341.3284 120.6094" fill="none" stroke="#63677A" stroke-width="1" paint-order="fill" stroke-opacity="1" stroke-dasharray="" stroke-linecap="butt" stroke-miterlimit="10">
</path>
<path d="M 352.9872 107.0596 L 355.7112 112.4056" fill="none" stroke="#63677A" stroke-width="1" paint-order="fill" stroke-opacity="1" stroke-dasharray="" stroke-linecap="butt" stroke-miterlimit="10">
</path>
<path d="M 352.9872 107.0596 L 357.5271 115.9696" fill="none" stroke="#63677A" stroke-width="3" paint-order="fill" stroke-opacity="1" stroke-dasharray="" stroke-linecap="butt" stroke-miterlimit="10">
</path>
<text xml:space="preserve" fill="#464646" fill-opacity="1" stroke="none" dominant-baseline="central" text-anchor="start" x="359.79708416843033" y="126.4246620915898" style="font: 12px &quot;Microsoft YaHei&quot;;">40</text>
<path d="M 352.9872 107.0596 L 355.7112 112.4056" fill="none" stroke="#63677A" stroke-width="1" paint-order="fill" stroke-opacity="1" stroke-dasharray="" stroke-linecap="butt" stroke-miterlimit="10">
</path>
<path d="M 368.5934 100.0131 L 370.8021 105.5918" fill="none" stroke="#63677A" stroke-width="1" paint-order="fill" stroke-opacity="1" stroke-dasharray="" stroke-linecap="butt" stroke-miterlimit="10">
</path>
<path d="M 384.7934 94.4666 L 386.4673 100.2284" fill="none" stroke="#63677A" stroke-width="1" paint-order="fill" stroke-opacity="1" stroke-dasharray="" stroke-linecap="butt" stroke-miterlimit="10">
</path>
<path d="M 401.4434 90.4693 L 402.5677 96.363" fill="none" stroke="#63677A" stroke-width="1" paint-order="fill" stroke-opacity="1" stroke-dasharray="" stroke-linecap="butt" stroke-miterlimit="10">
</path>
<path d="M 418.3958 88.0566 L 418.9605 94.03" fill="none" stroke="#63677A" stroke-width="1" paint-order="fill" stroke-opacity="1" stroke-dasharray="" stroke-linecap="butt" stroke-miterlimit="10">
</path>
<path d="M 435.5 87.25 L 435.5 93.25" fill="none" stroke="#63677A" stroke-width="1" paint-order="fill" stroke-opacity="1" stroke-dasharray="" stroke-linecap="butt" stroke-miterlimit="10">
</path>
<path d="M 435.5 87.25 L 435.5 97.25" fill="none" stroke="#63677A" stroke-width="3" paint-order="fill" stroke-opacity="1" stroke-dasharray="" stroke-linecap="butt" stroke-miterlimit="10">
</path>
<text xml:space="preserve" fill="#464646" fill-opacity="1" stroke="none" dominant-baseline="central" text-anchor="middle" x="435.49999999999966" y="108.25" style="font: 12px &quot;Microsoft YaHei&quot;;">50</text>
<path d="M 435.5 87.25 L 435.5 93.25" fill="none" stroke="#63677A" stroke-width="1" paint-order="fill" stroke-opacity="1" stroke-dasharray="" stroke-linecap="butt" stroke-miterlimit="10">
</path>
<path d="M 452.6042 88.0566 L 452.0395 94.03" fill="none" stroke="#63677A" stroke-width="1" paint-order="fill" stroke-opacity="1" stroke-dasharray="" stroke-linecap="butt" stroke-miterlimit="10">
</path>
<path d="M 469.5566 90.4693 L 468.4323 96.363" fill="none" stroke="#63677A" stroke-width="1" paint-order="fill" stroke-opacity="1" stroke-dasharray="" stroke-linecap="butt" stroke-miterlimit="10">
</path>
<path d="M 486.2066 94.4666 L 484.5327 100.2284" fill="none" stroke="#63677A" stroke-width="1" paint-order="fill" stroke-opacity="1" stroke-dasharray="" stroke-linecap="butt" stroke-miterlimit="10">
</path>
<path d="M 502.4066 100.0131 L 500.1979 105.5918" fill="none" stroke="#63677A" stroke-width="1" paint-order="fill" stroke-opacity="1" stroke-dasharray="" stroke-linecap="butt" stroke-miterlimit="10">
</path>
<path d="M 518.0128 107.0596 L 515.2888 112.4056" fill="none" stroke="#63677A" stroke-width="1" paint-order="fill" stroke-opacity="1" stroke-dasharray="" stroke-linecap="butt" stroke-miterlimit="10">
</path>
<path d="M 518.0128 107.0596 L 513.4729 115.9696" fill="none" stroke="#63677A" stroke-width="3" paint-order="fill" stroke-opacity="1" stroke-dasharray="" stroke-linecap="butt" stroke-miterlimit="10">
</path>
<text xml:space="preserve" fill="#464646" fill-opacity="1" stroke="none" dominant-baseline="central" text-anchor="end" x="511.20291583156904" y="126.42466209158945" style="font: 12px &quot;Microsoft YaHei&quot;;">60</text>
<path d="M 518.0128 107.0596 L 515.2888 112.4056" fill="none" stroke="#63677A" stroke-width="1" paint-order="fill" stroke-opacity="1" stroke-dasharray="" stroke-linecap="butt" stroke-miterlimit="10">
</path>
<path d="M 532.8865 115.5434 L 529.6716 120.6094" fill="none" stroke="#63677A" stroke-width="1" paint-order="fill" stroke-opacity="1" stroke-dasharray="" stroke-linecap="butt" stroke-miterlimit="10">
</path>
<path d="M 546.8959 125.3893 L 543.2184 130.1303" fill="none" stroke="#63677A" stroke-width="1" paint-order="fill" stroke-opacity="1" stroke-dasharray="" stroke-linecap="butt" stroke-miterlimit="10">
</path>
<path d="M 559.9164 136.51 L 555.8092 140.8838" fill="none" stroke="#63677A" stroke-width="1" paint-order="fill" stroke-opacity="1" stroke-dasharray="" stroke-linecap="butt" stroke-miterlimit="10">
</path>
<path d="M 571.8327 148.8066 L 567.332 152.7744" fill="none" stroke="#63677A" stroke-width="1" paint-order="fill" stroke-opacity="1" stroke-dasharray="" stroke-linecap="butt" stroke-miterlimit="10">
</path>
<path d="M 582.5388 162.17 L 577.6847 165.6967" fill="none" stroke="#63677A" stroke-width="1" paint-order="fill" stroke-opacity="1" stroke-dasharray="" stroke-linecap="butt" stroke-miterlimit="10">
</path>
<path d="M 582.5388 162.17 L 574.4487 168.0479" fill="none" stroke="#63677A" stroke-width="3" paint-order="fill" stroke-opacity="1" stroke-dasharray="" stroke-linecap="butt" stroke-miterlimit="10">
</path>
<text xml:space="preserve" fill="#464646" fill-opacity="1" stroke="none" dominant-baseline="central" text-anchor="end" x="570.4035838120222" y="170.98680918022976" style="font: 12px &quot;Microsoft YaHei&quot;;">70</text>
<path d="M 582.5388 162.17 L 577.6847 165.6967" fill="none" stroke="#63677A" stroke-width="1" paint-order="fill" stroke-opacity="1" stroke-dasharray="" stroke-linecap="butt" stroke-miterlimit="10">
</path>
<path d="M 591.9399 176.4817 L 586.7754 179.536" fill="none" stroke="#63677A" stroke-width="1" paint-order="fill" stroke-opacity="1" stroke-dasharray="" stroke-linecap="butt" stroke-miterlimit="10">
</path>
<path d="M 599.9523 191.6146 L 594.5234 194.1693" fill="none" stroke="#63677A" stroke-width="1" paint-order="fill" stroke-opacity="1" stroke-dasharray="" stroke-linecap="butt" stroke-miterlimit="10">
</path>
<path d="M 606.5051 207.4344 L 600.8598 209.4668" fill="none" stroke="#63677A" stroke-width="1" paint-order="fill" stroke-opacity="1" stroke-dasharray="" stroke-linecap="butt" stroke-miterlimit="10">
</path>
<path d="M 611.54 223.8006 L 605.7285 225.2928" fill="none" stroke="#63677A" stroke-width="1" paint-order="fill" stroke-opacity="1" stroke-dasharray="" stroke-linecap="butt" stroke-miterlimit="10">
</path>
<path d="M 615.0124 240.568 L 609.0862 241.5066" fill="none" stroke="#63677A" stroke-width="1" paint-order="fill" stroke-opacity="1" stroke-dasharray="" stroke-linecap="butt" stroke-miterlimit="10">
</path>
<path d="M 615.0124 240.568 L 605.1355 242.1324" fill="none" stroke="#63677A" stroke-width="3" paint-order="fill" stroke-opacity="1" stroke-dasharray="" stroke-linecap="butt" stroke-miterlimit="10">
</path>
<text xml:space="preserve" fill="#464646" fill-opacity="1" stroke="none" dominant-baseline="central" text-anchor="end" x="600.1970307942391" y="242.91455295454108" style="font: 12px &quot;Microsoft YaHei&quot;;">80</text>
<path d="M 615.0124 240.568 L 609.0862 241.5066" fill="none" stroke="#63677A" stroke-width="1" paint-order="fill" stroke-opacity="1" stroke-dasharray="" stroke-linecap="butt" stroke-miterlimit="10">
</path>
<path d="M 616.8914 257.5878 L 610.9032 257.9646" fill="none" stroke="#63677A" stroke-width="1" paint-order="fill" stroke-opacity="1" stroke-dasharray="" stroke-linecap="butt" stroke-miterlimit="10">
</path>
<path d="M 617.1603 274.7089 L 611.1633 274.5204" fill="none" stroke="#63677A" stroke-width="1" paint-order="fill" stroke-opacity="1" stroke-dasharray="" stroke-linecap="butt" stroke-miterlimit="10">
</path>
<path d="M 615.8168 291.7793 L 609.8642 291.0273" fill="none" stroke="#63677A" stroke-width="1" paint-order="fill" stroke-opacity="1" stroke-dasharray="" stroke-linecap="butt" stroke-miterlimit="10">
</path>
<path d="M 612.8729 308.6475 L 607.0174 307.3387" fill="none" stroke="#63677A" stroke-width="1" paint-order="fill" stroke-opacity="1" stroke-dasharray="" stroke-linecap="butt" stroke-miterlimit="10">
</path>
<path d="M 608.3545 325.1638 L 602.6482 323.3097" fill="none" stroke="#63677A" stroke-width="1" paint-order="fill" stroke-opacity="1" stroke-dasharray="" stroke-linecap="butt" stroke-miterlimit="10">
</path>
<path d="M 608.3545 325.1638 L 598.844 322.0737" fill="none" stroke="#63677A" stroke-width="3" paint-order="fill" stroke-opacity="1" stroke-dasharray="" stroke-linecap="butt" stroke-miterlimit="10">
</path>
<text xml:space="preserve" fill="#464646" fill-opacity="1" stroke="none" dominant-baseline="central" text-anchor="end" x="594.0886740922169" y="320.5285838120221" style="font: 12px &quot;Microsoft YaHei&quot;;">90</text>
<path d="M 608.3545 325.1638 L 602.6482 323.3097" fill="none" stroke="#63677A" stroke-width="1" paint-order="fill" stroke-opacity="1" stroke-dasharray="" stroke-linecap="butt" stroke-miterlimit="10">
</path>
<path d="M 602.3019 341.1816 L 596.7954 338.7987" fill="none" stroke="#63677A" stroke-width="1" paint-order="fill" stroke-opacity="1" stroke-dasharray="" stroke-linecap="butt" stroke-miterlimit="10">
</path>
<path d="M 594.7687 356.5587 L 589.5109 353.6682" fill="none" stroke="#63677A" stroke-width="1" paint-order="fill" stroke-opacity="1" stroke-dasharray="" stroke-linecap="butt" stroke-miterlimit="10">
</path>
<path d="M 585.8219 371.1587 L 580.8594 367.7862" fill="none" stroke="#63677A" stroke-width="1" paint-order="fill" stroke-opacity="1" stroke-dasharray="" stroke-linecap="butt" stroke-miterlimit="10">
</path>
<path d="M 575.5408 384.8518 L 570.9177 381.0273" fill="none" stroke="#63677A" stroke-width="1" paint-order="fill" stroke-opacity="1" stroke-dasharray="" stroke-linecap="butt" stroke-miterlimit="10">
</path>
<path d="M 564.0167 397.5167 L 559.774 393.274" fill="none" stroke="#63677A" stroke-width="1" paint-order="fill" stroke-opacity="1" stroke-dasharray="" stroke-linecap="butt" stroke-miterlimit="10">
</path>
<path d="M 564.0167 397.5167 L 556.9456 390.4456" fill="none" stroke="#63677A" stroke-width="3" paint-order="fill" stroke-opacity="1" stroke-dasharray="" stroke-linecap="butt" stroke-miterlimit="10">
</path>
<text xml:space="preserve" fill="#464646" fill-opacity="1" stroke="none" dominant-baseline="central" text-anchor="end" x="553.4100557628572" y="386.9100557628565" style="font: 12px &quot;Microsoft YaHei&quot;;">100</text>
<text xml:space="preserve" fill="#464646" fill-opacity="1" stroke="none" dominant-baseline="central" text-anchor="middle" x="354.8" y="430.4" style="font: 14px &quot;Microsoft YaHei&quot;;">食盐摄入百分比</text>
<path d="M 327.8 448.6625 L 381.8 448.6625 A 3 3 0 0 1 384.8 451.6625 L 384.8 469.6625 A 3 3 0 0 1 381.8 472.6625 L 327.8 472.6625 A 3 3 0 0 1 324.8 469.6625 L 324.8 451.6625 A 3 3 0 0 1 327.8 448.6625" fill="#5470c6" fill-opacity="1" stroke="none">
</path>
<text xml:space="preserve" fill="#fff" fill-opacity="1" stroke="none" dominant-baseline="central" text-anchor="middle" x="354.8" y="460.6625" style="font: bold 14px &quot;Microsoft YaHei&quot;;">45%</text>
<text xml:space="preserve" fill="#464646" fill-opacity="1" stroke="none" dominant-baseline="central" text-anchor="middle" x="516.2" y="430.4" style="font: 14px &quot;Microsoft YaHei&quot;;">喝水百分比</text>
<path d="M 489.2 448.6625 L 543.2 448.6625 A 3 3 0 0 1 546.2 451.6625 L 546.2 469.6625 A 3 3 0 0 1 543.2 472.6625 L 489.2 472.6625 A 3 3 0 0 1 486.2 469.6625 L 486.2 451.6625 A 3 3 0 0 1 489.2 448.6625" fill="#91cc75" fill-opacity="1" stroke="none">
</path>
<text xml:space="preserve" fill="#fff" fill-opacity="1" stroke="none" dominant-baseline="central" text-anchor="middle" x="516.2" y="460.6625" style="font: bold 14px &quot;Microsoft YaHei&quot;;">60%</text>
<path d="M 0 -145.26 C 2.1538 -145.26 4 -143.6487 4 -141.7688 L 4 12.6488 C 4 14.5287 2.1538 16.14 0 16.14 C -2.1538 16.14 -4 14.5287 -4 12.6488 L -4 -141.7688 C -4 -143.6487 -2.3077 -145.26 0 -145.26 Z" fill="#5470c6" fill-opacity="1" stroke="none" transform="matrix(0.972,-0.233,0.233,0.972,435.5,269)">
</path>
<path d="M 0 -145.26 C 2.1538 -145.26 4 -143.6487 4 -141.7688 L 4 12.6488 C 4 14.5287 2.1538 16.14 0 16.14 C -2.1538 16.14 -4 14.5287 -4 12.6488 L -4 -141.7688 C -4 -143.6487 -2.3077 -145.26 0 -145.26 Z" fill="#91cc75" fill-opacity="1" stroke="none" transform="matrix(0.891,0.454,-0.454,0.891,435.5,269)">
</path>
<path d="M 444.5 269 A 9 9 0 1 1 444.5 268.9991" fill="#FAC858" fill-opacity="1" stroke="#5470c6" stroke-width="0" paint-order="fill" stroke-opacity="1" stroke-dasharray="" stroke-linecap="butt" stroke-miterlimit="10">
</path>
<path d="M 299.9123 404.5877 A 5 5 0 0 1 292.8412 411.6588 A 201.75 201.75 0 0 1 527.0926 89.2394 M 527.0926 89.2394 A 5 5 0 1 1 522.5527 98.1495 A 191.75 191.75 0 0 0 299.9123 404.5877 M 299.9123 98.1495 Z" fill="#91cc75" fill-opacity="1" stroke="none">
</path>
<path d="M 299.9123 404.5877 A 5 5 0 0 1 292.8412 411.6588 A 201.75 201.75 0 0 1 388.4024 72.8244 M 388.4024 72.8244 A 5 5 0 1 1 390.7369 82.5481 A 191.75 191.75 0 0 0 299.9123 404.5877 M 299.9123 82.5481 Z" fill="#5470c6" fill-opacity="1" stroke="none">
</path>
</g>
</svg>